<svg xmlns="http://www.w3.org/2000/svg" width="81" height="81" fill="none" viewBox="0 0 81 81">
  <g clip-path="url(#a)">
    <path fill="#888" d="M40.5 51.3c5.965 0 10.8-4.835 10.8-10.8 0-5.965-4.835-10.8-10.8-10.8-5.965 0-10.8 4.835-10.8 10.8 0 5.965 4.835 10.8 10.8 10.8Z"/>
    <path fill="#888" d="m30.375 6.75-6.176 6.75H13.5c-3.713 0-6.75 3.038-6.75 6.75v40.5c0 3.713 3.037 6.75 6.75 6.75h54c3.713 0 6.75-3.037 6.75-6.75v-40.5c0-3.712-3.037-6.75-6.75-6.75H56.801l-6.176-6.75h-20.25ZM40.5 57.375c-9.315 0-16.875-7.56-16.875-16.875 0-9.315 7.56-16.875 16.875-16.875 9.315 0 16.875 7.56 16.875 16.875 0 9.315-7.56 16.875-16.875 16.875Z"/>
  </g>
  <defs>
    <clipPath id="a">
      <path fill="#fff" d="M0 0h81v81H0z"/>
    </clipPath>
  </defs>
</svg>
