<svg xmlns="http://www.w3.org/2000/svg" width="360" height="548" fill="none" viewBox="0 0 360 548">
  <path fill="#fff" d="M0 0h360v548H0z"/>
  <mask id="a" fill="#fff">
    <path d="M0 0h360v60H0V0Z"/>
  </mask>
  <path fill="#fff" d="M0 0h360v60H0V0Z"/>
  <path fill="#444" d="M23.84 37v-1.68c4.04-3.62 6.4-6.4 6.4-8.68 0-1.48-.78-2.4-2.2-2.4-1.1 0-1.96.7-2.72 1.54l-1.62-1.6c1.36-1.46 2.7-2.24 4.72-2.24 2.78 0 4.66 1.78 4.66 4.54 0 2.7-2.24 5.58-4.94 8.22.74-.08 1.72-.18 2.42-.18h3.2V37h-9.92Zm16.857.28c-3.02 0-5.02-2.62-5.02-7.74 0-5.1 2-7.6 5.02-7.6 3 0 5 2.5 5 7.6 0 5.12-2 7.74-5 7.74Zm0-2.3c1.28 0 2.22-1.28 2.22-5.44 0-4.14-.94-5.34-2.22-5.34-1.28 0-2.24 1.2-2.24 5.34 0 4.16.96 5.44 2.24 5.44ZM47.434 37v-1.68c4.04-3.62 6.4-6.4 6.4-8.68 0-1.48-.78-2.4-2.2-2.4-1.1 0-1.96.7-2.72 1.54l-1.62-1.6c1.36-1.46 2.7-2.24 4.72-2.24 2.78 0 4.66 1.78 4.66 4.54 0 2.7-2.24 5.58-4.94 8.22.74-.08 1.72-.18 2.42-.18h3.2V37h-9.92Zm16.417.28c-2.34 0-3.92-.86-4.96-2.06l1.4-1.86c.88.86 1.94 1.54 3.28 1.54 1.52 0 2.54-.76 2.54-2.08 0-1.46-.86-2.36-4.08-2.36v-2.12c2.72 0 3.6-.92 3.6-2.24 0-1.16-.72-1.86-1.98-1.86-1.06 0-1.92.5-2.8 1.32l-1.5-1.82c1.28-1.1 2.7-1.8 4.42-1.8 2.86 0 4.8 1.4 4.8 3.94 0 1.58-.88 2.76-2.46 3.36v.1c1.68.48 2.96 1.7 2.96 3.66 0 2.72-2.38 4.28-5.22 4.28Zm19.977-17.02h2.66v13.62h-2.66V20.26Zm-4.48 2.06h5.38v2.08h-5.38v-2.08Zm-5.1 14.02h12.66v2.12h-12.66v-2.12Zm0-3.68h2.68v4.76h-2.68v-4.76Zm-2.24-11.22h2.64v8.7h-2.64v-8.7Zm0 7.9h1.48c2.68 0 5.06-.12 7.7-.58l.24 2.14c-2.72.5-5.16.6-7.94.6h-1.48v-2.16Zm7.34-3.58h5.38v2.1h-5.38v-2.1ZM94.737 37v-2.38h3.2v-9.36h-2.7v-1.82c1.5-.28 2.5-.66 3.46-1.24h2.179v12.42h2.78V37h-8.92Zm16.076.28c-3.02 0-5.02-2.62-5.02-7.74 0-5.1 2-7.6 5.02-7.6 3 0 5 2.5 5 7.6 0 5.12-2 7.74-5 7.74Zm0-2.3c1.28 0 2.22-1.28 2.22-5.44 0-4.14-.94-5.34-2.22-5.34-1.28 0-2.24 1.2-2.24 5.34 0 4.16.96 5.44 2.24 5.44Zm11.177-7.2h2.66V31h-2.66v-3.22Zm8.46-7.52h2.66v10.72h-2.66V20.26Zm-12.64 8.34-.28-1.84c3.56 0 7.94 0 11.84-.38l.14 1.64c-4.02.56-8.24.6-11.7.58Zm2.34 2.94h12.96v4.34h-10.3v1.46h-2.62v-3.12h10.28v-.88h-10.32v-1.8Zm.04 5.3h13.34v1.82h-13.34v-1.82Zm6.98-8h4.1v1.58h-4.1v-1.58Zm-3.76-8.32c2.76 0 4.62 1.1 4.62 2.78 0 1.7-1.86 2.78-4.62 2.78-2.78 0-4.64-1.08-4.64-2.78 0-1.68 1.86-2.78 4.64-2.78Zm0 1.74c-1.34 0-2.16.36-2.16 1.04s.82 1.02 2.16 1.02c1.32 0 2.14-.34 2.14-1.02 0-.68-.82-1.04-2.14-1.04Z"/>
  <path fill="#F6F6F6" d="M360 59H0v2h360v-2Z" mask="url(#a)"/>
  <path fill="#000" d="M26.145 164.454v8.568c2.074-.017 4.284-.187 6.613-.663l.204 1.445c-2.601.51-4.981.68-7.293.68h-1.275v-10.03h1.751Zm11.934 4.488v1.445H35.75v7.922h-1.751v-15.351h1.751v5.984h2.329Zm6.524-4.913c2.397 0 4.182 1.513 4.182 3.689s-1.785 3.689-4.182 3.689c-2.397 0-4.165-1.513-4.165-3.689s1.768-3.689 4.165-3.689Zm0 1.496c-1.411 0-2.448.85-2.448 2.193 0 1.326 1.037 2.193 2.448 2.193 1.428 0 2.465-.867 2.465-2.193 0-1.343-1.037-2.193-2.465-2.193Zm5.916-2.584h1.768v15.385h-1.768v-15.385Zm-10.574 12.138-.221-1.445c2.754 0 6.579-.017 9.877-.51l.119 1.275c-3.383.646-7.055.68-9.775.68Zm29.94-8.636v-1.53h-8.84v-1.411H71.67v4.267h-8.823v1.649h9.163v1.428H61.079v-4.403h8.806Zm3.434 5.78v1.411h-6.103v4.709h-1.768v-4.709h-6.052v-1.411h13.923Zm14.53-9.248v11.356H86.1v-11.356h1.75Zm-3.298 7.208.17 1.377c-2.193.374-4.08.425-7.378.425h-1.275v-7.837h7.344v1.411h-5.61v1.785h5.168v1.377h-5.168v1.87c2.958 0 4.71-.085 6.75-.408Zm-4.964 6.409h8.704v1.428H77.82v-4.658h1.768v3.23Z"/>
  <path fill="#3FCC8A" d="M49.32 224.048v1.328h-9.792V219.6h9.616v1.328h-7.92v3.12h8.096Zm1.584 2.992v1.36h-5.776v4.8H43.48v-4.8h-5.696v-1.36h13.12Zm5.523-5.472v6.832c.672-.032 1.376-.048 2.064-.08v-6.752h-2.064Zm3.664 0v6.64c.72-.048 1.424-.128 2.112-.208l.096 1.216c-3.088.512-6.496.56-9.12.56l-.176-1.36c.56 0 1.184 0 1.824-.016v-6.832h-1.44v-1.328h8.144v1.328h-1.44Zm3.216-2.784h1.648v14.464h-1.648v-14.464Zm11.168 2.72v6.816h3.504v-6.816h-3.504Zm-1.632 8.128v-9.44h6.768v9.44h-6.768Zm12.944-5.2v1.36h-2.256v7.456h-1.648v-14.464h1.648v5.648h2.256Zm6.835-4.448v2.368c0 2.576 1.344 5.184 3.52 6.256l-1.008 1.312c-1.552-.8-2.704-2.368-3.328-4.256-.624 2-1.84 3.68-3.488 4.528l-1.008-1.328c2.256-1.104 3.664-3.84 3.664-6.512v-2.368h1.648Zm8.384 4.528v1.36H98.75v7.36h-1.648v-14.448h1.648v5.728h2.256Zm7.107-2.928v1.376c0 2.4 1.488 4.896 3.744 5.856l-.912 1.296c-1.68-.736-2.976-2.304-3.648-4.176-.64 2.016-1.936 3.728-3.632 4.544l-.944-1.312c2.24-1.04 3.728-3.728 3.728-6.208v-1.376h-3.216v-1.36h8.096v1.36h-3.216Zm4.896-2.8h1.664v14.448h-1.664v-14.448Zm13.296 9.984c1.168 0 2.016-.8 2.016-2.016s-.848-2.016-2.016-2.016c-1.168 0-2.016.8-2.016 2.016s.848 2.016 2.016 2.016Zm0-5.392c2.064 0 3.584 1.408 3.584 3.376 0 1.984-1.52 3.376-3.584 3.376-2.08 0-3.584-1.392-3.584-3.376 0-1.968 1.504-3.376 3.584-3.376Zm.8-4.368v2h3.376v1.344h-8.464v-1.344h3.44v-2h1.648Zm8.432 5.584v1.376h-2.224v7.28h-1.664v-14.464h1.664v5.808h2.224Zm2.595-4.288h6.848c0 4.304-1.728 7.952-6.688 10.352l-.88-1.312c3.792-1.824 5.584-4.368 5.872-7.696h-5.152v-1.344Zm9.456-1.52h1.648v14.448h-1.648v-14.448Z"/>
  <path fill="#999" d="M60.992 252.22h.996v2.7h-.996v-2.7Zm.504-5.424c2.292 0 3.936 1.116 3.936 2.844 0 1.728-1.644 2.844-3.936 2.844s-3.948-1.116-3.948-2.844c0-1.728 1.656-2.844 3.948-2.844Zm0 .792c-1.728 0-2.988.816-2.988 2.052 0 1.236 1.26 2.052 2.988 2.052 1.716 0 2.976-.816 2.976-2.052 0-1.236-1.26-2.052-2.976-2.052Zm-4.896 7.14h9.828v.828H56.6v-.828Zm17.187-5.652h2.736v.816h-2.736v-.816Zm2.172-2.976h.996v7.944h-.996V246.1Zm-5.928 9.78h7.224v.816h-7.224v-.816Zm0-2.532h.996v2.952h-.996v-2.952Zm.768-5.904h.816v.876a4.62 4.62 0 0 1-3.036 4.344l-.516-.792c1.62-.576 2.736-2.016 2.736-3.552v-.876Zm.192 0h.804v.864c0 1.404 1.056 2.772 2.628 3.324l-.504.78c-1.764-.636-2.928-2.268-2.928-4.104v-.864Zm-2.616-.468h5.796v.804h-5.796v-.804ZM83.018 256v-.912h1.956v-6.552h-1.572v-.708c.792-.132 1.356-.336 1.824-.624h.84v7.884h1.776V256h-4.824Zm9.336.168c-1.68 0-2.748-1.524-2.748-4.596 0-3.048 1.068-4.524 2.748-4.524 1.656 0 2.724 1.476 2.724 4.524 0 3.072-1.068 4.596-2.724 4.596Zm0-.888c.996 0 1.668-1.116 1.668-3.708 0-2.556-.672-3.648-1.668-3.648-1.008 0-1.692 1.092-1.692 3.648 0 2.592.684 3.708 1.692 3.708Zm5.376-3.96c-.432 0-.78-.336-.78-.828 0-.504.348-.84.78-.84.444 0 .804.336.804.84 0 .492-.36.828-.804.828Zm0 4.848c-.432 0-.78-.348-.78-.84 0-.504.348-.84.78-.84.444 0 .804.336.804.84 0 .492-.36.84-.804.84Zm5.42 0c-1.68 0-2.748-1.524-2.748-4.596 0-3.048 1.068-4.524 2.748-4.524 1.656 0 2.724 1.476 2.724 4.524 0 3.072-1.068 4.596-2.724 4.596Zm0-.888c.996 0 1.668-1.116 1.668-3.708 0-2.556-.672-3.648-1.668-3.648-1.008 0-1.692 1.092-1.692 3.648 0 2.592.684 3.708 1.692 3.708Zm7.056.888c-1.68 0-2.748-1.524-2.748-4.596 0-3.048 1.068-4.524 2.748-4.524 1.656 0 2.724 1.476 2.724 4.524 0 3.072-1.068 4.596-2.724 4.596Zm0-.888c.996 0 1.668-1.116 1.668-3.708 0-2.556-.672-3.648-1.668-3.648-1.008 0-1.692 1.092-1.692 3.648 0 2.592.684 3.708 1.692 3.708Z"/>
  <rect width="54" height="23" x="275" y="214" fill="#3FCC8A" rx="5"/>
  <path fill="#fff" d="M293.825 221.1h.948v6.708h-.948V221.1Zm-1.764 2.964h2.052v.816h-2.052v-.816Zm-.54-2.808h.948v6.396h-.948v-6.396Zm-5.94 1.068h5.496v.792h-5.496v-.792Zm2.76 1.332c1.356 0 2.304.732 2.304 1.86 0 1.128-.948 1.86-2.304 1.86-1.368 0-2.316-.732-2.316-1.86 0-1.128.948-1.86 2.316-1.86Zm0 .756c-.852 0-1.428.432-1.428 1.104 0 .672.576 1.116 1.428 1.116.84 0 1.416-.444 1.416-1.116 0-.672-.576-1.104-1.416-1.104Zm-.492-3.276h.972v1.656h-.972v-1.656Zm.648 6.996h.768v.372c0 1.368-.9 2.736-2.472 3.3l-.468-.744c1.356-.456 2.172-1.572 2.172-2.556v-.372Zm.228 0h.732v.372c0 1.044.636 2.148 1.932 2.64l-.42.756c-1.548-.576-2.244-2.016-2.244-3.396v-.372Zm3.756 0h.732v.372c0 1.224-.708 2.772-2.244 3.396l-.408-.756c1.26-.552 1.92-1.74 1.92-2.64v-.372Zm.204 0h.768v.372c0 1.056.816 2.124 2.184 2.556l-.48.744c-1.584-.54-2.472-1.86-2.472-3.3v-.372Zm7.287-6.216c1.572 0 2.7 1.476 2.7 3.78 0 2.316-1.128 3.792-2.7 3.792-1.584 0-2.7-1.476-2.7-3.792 0-2.304 1.116-3.78 2.7-3.78Zm0 .9c-1.044 0-1.752 1.128-1.752 2.88 0 1.764.708 2.916 1.752 2.916s1.752-1.152 1.752-2.916c0-1.752-.708-2.88-1.752-2.88Zm5.052-1.74h.984v10.872h-.984v-10.872Zm-2.676 4.14h3.108v.816h-3.108v-.816Zm8.572 1.452h.984v3.252h-.984v-3.252Zm4.008 0h.996v3.252h-.996v-3.252Zm-6.408 3.06h9.828v.828h-9.828v-.828Zm4.896-7.956c2.292 0 3.936 1.092 3.936 2.796 0 1.692-1.644 2.784-3.936 2.784-2.304 0-3.948-1.092-3.948-2.784 0-1.704 1.644-2.796 3.948-2.796Zm0 .792c-1.74 0-2.988.792-2.988 2.004 0 1.2 1.248 1.992 2.988 1.992s2.976-.792 2.976-1.992c0-1.212-1.236-2.004-2.976-2.004Z"/>
  <g clip-path="url(#b)">
    <path fill="#999" d="M51.667 245.814 48.6 243.24l-.86 1.02 3.067 2.574.86-1.02Zm-9.413-1.554-.854-1.02-3.066 2.567.86 1.02 3.06-2.567Zm2.746.407a6 6 0 1 0 .002 12.001A6 6 0 0 0 45 244.667Zm0 10.667a4.664 4.664 0 0 1-4.666-4.667A4.664 4.664 0 0 1 45 246a4.663 4.663 0 0 1 4.667 4.667A4.663 4.663 0 0 1 45 255.334Zm-.973-3.647-1.42-1.42-.707.707 2.12 2.12 4-4-.707-.707-3.286 3.3Z"/>
  </g>
  <rect width="313" height="74" x="23.5" y="198.5" stroke="#3FCC8A" rx="7.5"/>
  <path fill="#999" d="M41.656 323.56c1.248 0 2.128-1.36 2.128-3.616 0-2.256-.88-3.616-2.128-3.616-1.264 0-2.128 1.36-2.128 3.616 0 2.256.864 3.616 2.128 3.616Zm0-8.72c2.16 0 3.712 1.984 3.712 5.104s-1.552 5.088-3.712 5.088-3.712-1.968-3.712-5.088 1.552-5.104 3.712-5.104Zm9.6 4.592v1.36H49v7.456h-1.648v-14.464H49v5.648h2.256Zm13.41-.96v1.328h-9.983v-5.344h1.648v4.016h8.336Zm1.457 3.264v1.36h-5.776v5.152h-1.664v-5.152h-5.664v-1.36h13.104Zm3.01-6.512h6.577c0 4.32-1.264 8.096-6.512 10.736l-.896-1.28c2.527-1.264 4.047-2.768 4.895-4.544l-4.576.448-.224-1.424 5.296-.336c.192-.704.32-1.456.385-2.256h-4.945v-1.344Zm12.496 4.256v1.376h-2.192v7.36H77.79v-14.448h1.647v5.712h2.192Zm10.993-4.496v2.368c0 2.576 1.344 5.184 3.52 6.256l-1.008 1.312c-1.552-.8-2.704-2.368-3.328-4.256-.624 2-1.84 3.68-3.488 4.528l-1.008-1.328c2.256-1.104 3.664-3.84 3.664-6.512v-2.368h1.648Zm8.384 4.528v1.36H98.75v7.36h-1.648v-14.448h1.648v5.728h2.256Zm9.347 2.4-1.616-.144c.368-2.24.4-3.92.4-5.136h-5.728v-1.328h7.344v.96c0 1.264 0 3.088-.4 5.648Zm-3.232-2.464v4.32c1.504-.064 3.024-.16 4.432-.336l.08 1.2c-2.976.496-6.288.56-8.816.56l-.176-1.36c.88 0 1.856-.016 2.864-.032v-4.352h1.616Zm8.992.272v1.392h-2.128v7.12h-1.664v-14.448h1.664v5.936h2.128Zm8.208 4.672v-1.328h9.744v5.2h-1.648v-3.872h-8.096Zm3.488-4.272v-3.952h-3.472v3.952h3.472Zm4.608-6.336h1.648v8.544h-1.648v-3.664h-3.008v2.768h-6.688v-6.576h6.688v2.464h3.008v-3.536Zm5.715 1.52h6.848c0 4.304-1.728 7.952-6.688 10.352l-.88-1.312c3.792-1.824 5.584-4.368 5.872-7.696h-5.152v-1.344Zm9.456-1.52h1.648v14.448h-1.648v-14.448ZM60.992 347.22h.996v2.7h-.996v-2.7Zm.504-5.424c2.292 0 3.936 1.116 3.936 2.844 0 1.728-1.644 2.844-3.936 2.844s-3.948-1.116-3.948-2.844c0-1.728 1.656-2.844 3.948-2.844Zm0 .792c-1.728 0-2.988.816-2.988 2.052 0 1.236 1.26 2.052 2.988 2.052 1.716 0 2.976-.816 2.976-2.052 0-1.236-1.26-2.052-2.976-2.052Zm-4.896 7.14h9.828v.828H56.6v-.828Zm11.943-7.404h8.724v.804h-8.724v-.804Zm-.504 5.796h9.828v.816H68.04v-.816Zm4.392.66h.996v3.168h-.996v-3.168Zm.504-5.028c2.208 0 3.516.648 3.516 1.812 0 1.152-1.308 1.812-3.516 1.812-2.22 0-3.528-.66-3.528-1.812 0-1.164 1.308-1.812 3.528-1.812Zm0 .768c-1.584 0-2.496.372-2.496 1.044s.912 1.044 2.496 1.044 2.496-.372 2.496-1.044-.912-1.044-2.496-1.044Zm-.504-3.492h.996v1.836h-.996v-1.836ZM83.018 351v-.912h1.956v-6.552h-1.572v-.708c.792-.132 1.356-.336 1.824-.624h.84v7.884h1.776V351h-4.824Zm7.056 0v-.912h1.956v-6.552h-1.572v-.708c.792-.132 1.356-.336 1.824-.624h.84v7.884h1.776V351h-4.824Zm7.656-4.68c-.432 0-.78-.336-.78-.828 0-.504.348-.84.78-.84.444 0 .804.336.804.84 0 .492-.36.828-.804.828Zm0 4.848c-.432 0-.78-.348-.78-.84 0-.504.348-.84.78-.84.444 0 .804.336.804.84 0 .492-.36.84-.804.84Zm5.24 0c-1.38 0-2.232-.576-2.808-1.212l.552-.72c.516.54 1.176 1.02 2.184 1.02 1.044 0 1.788-.636 1.788-1.644 0-1.056-.708-1.752-2.736-1.752v-.852c1.812 0 2.424-.72 2.424-1.68 0-.84-.564-1.392-1.476-1.392-.708 0-1.332.36-1.824.864l-.588-.708c.66-.6 1.44-1.044 2.448-1.044 1.476 0 2.556.804 2.556 2.208 0 1.068-.624 1.776-1.56 2.112v.048c1.032.252 1.872 1.032 1.872 2.244 0 1.56-1.26 2.508-2.832 2.508Zm7.236 0c-1.68 0-2.748-1.524-2.748-4.596 0-3.048 1.068-4.524 2.748-4.524 1.656 0 2.724 1.476 2.724 4.524 0 3.072-1.068 4.596-2.724 4.596Zm0-.888c.996 0 1.668-1.116 1.668-3.708 0-2.556-.672-3.648-1.668-3.648-1.008 0-1.692 1.092-1.692 3.648 0 2.592.684 3.708 1.692 3.708Z"/>
  <rect width="54" height="23" x="275" y="309" fill="#999" rx="5"/>
  <path fill="#fff" d="M294.657 320.588h.996v1.644h-.996v-1.644Zm.468-4.008c1.572 0 2.676.864 2.676 2.148 0 1.284-1.104 2.136-2.676 2.136-1.56 0-2.664-.852-2.664-2.136 0-1.284 1.104-2.148 2.664-2.148Zm0 .768c-1.02 0-1.728.564-1.728 1.38 0 .828.708 1.38 1.728 1.38 1.032 0 1.74-.552 1.74-1.38 0-.816-.708-1.38-1.74-1.38Zm4.14-1.248h.996v8.292h-.996V316.1Zm.576 3.66h2.004v.828h-2.004v-.828Zm-6.444 6.108h7.248v.828h-7.248v-.828Zm0-2.184h.996v2.544h-.996v-2.544Zm-1.428-.9-.132-.816c1.908 0 4.548-.024 6.756-.36l.072.732c-2.268.42-4.836.444-6.696.444Zm14.067-.336h.984v2.664h-.984v-2.664Zm3.468-.024h.972v2.676h-.972v-2.676Zm-6.204 2.352h9.828v.828H303.3v-.828Zm1.188-7.884h7.428v3.276h-6.408v2.184h-.984v-2.976h6.408v-1.68h-6.444v-.804Zm.036 5.016h7.644v.816h-7.644v-.816Z"/>
  <g clip-path="url(#c)">
    <path fill="#999" d="M51.667 340.814 48.6 338.24l-.86 1.02 3.067 2.574.86-1.02Zm-9.413-1.554-.854-1.02-3.066 2.567.86 1.02 3.06-2.567Zm2.746.407a6 6 0 1 0 .002 12.001A6 6 0 0 0 45 339.667Zm0 10.667a4.664 4.664 0 0 1-4.666-4.667A4.664 4.664 0 0 1 45 341a4.663 4.663 0 0 1 4.667 4.667A4.663 4.663 0 0 1 45 350.334Zm-.973-3.647-1.42-1.42-.707.707 2.12 2.12 4-4-.707-.707-3.286 3.3Z"/>
  </g>
  <rect width="313" height="74" x="23.5" y="293.5" stroke="#999" rx="7.5"/>
  <path fill="#3FCC8A" d="M38.584 410.144h6.784v9.552h-6.784v-9.552Zm5.168 1.312H40.2v6.912h3.552v-6.912Zm4.288-2.688h1.664v14.496H48.04v-14.496Zm6.483 10.912v-1.328h9.968v4.896h-1.648v-3.568h-8.32Zm5.872-3.968h5.712v1.344H53.035v-1.344h5.696v-1.76h-4.016v-4.896h1.648v3.568h8.272v1.328h-4.24v1.76Zm13.187-5.728v2.368c0 2.656 1.472 5.312 3.744 6.336l-.96 1.312c-1.665-.784-2.928-2.384-3.585-4.336-.656 2.096-1.936 3.808-3.68 4.656l-.975-1.376c2.303-1.04 3.807-3.808 3.807-6.592v-2.368h1.648Zm4.896-1.216h1.663v14.496h-1.663v-14.496Zm16.898.016v7.312h-1.664v-7.312h1.664ZM92.4 413.68l.176 1.296c-2.048.4-3.872.512-7.04.512H84.32V409.6h6.8v1.312h-5.152v3.28c2.832-.016 4.528-.112 6.432-.512Zm-4.848 8.16h8.256v1.296H85.92v-3.84h7.824v-1.264h-7.856v-1.28h9.488v3.744h-7.824v1.344Zm20.961-3.344v-3.536h-3.584v3.536h3.584Zm0-4.848v-3.68h1.632v9.856h-6.864v-9.856h1.648v3.68h3.584Zm7.712.688v1.376h-2.256v7.536h-1.648v-14.464h1.648v5.552h2.256Zm11.683-1.248v-1.92h-8.352v-1.344h9.984v4.576h-8.336v2.016h8.656v1.344h-10.272v-4.672h8.32Zm-9.904 7.056h13.088v1.36h-13.088v-1.36Zm16.034-9.84h6.848c0 4.304-1.728 7.952-6.688 10.352l-.88-1.312c3.792-1.824 5.584-4.368 5.872-7.696h-5.152v-1.344Zm9.456-1.52h1.648v14.448h-1.648v-14.448Z"/>
  <rect width="54" height="23" x="275" y="404" fill="#3FCC8A" rx="5"/>
  <path fill="#fff" d="M293.825 411.1h.948v6.708h-.948V411.1Zm-1.764 2.964h2.052v.816h-2.052v-.816Zm-.54-2.808h.948v6.396h-.948v-6.396Zm-5.94 1.068h5.496v.792h-5.496v-.792Zm2.76 1.332c1.356 0 2.304.732 2.304 1.86 0 1.128-.948 1.86-2.304 1.86-1.368 0-2.316-.732-2.316-1.86 0-1.128.948-1.86 2.316-1.86Zm0 .756c-.852 0-1.428.432-1.428 1.104 0 .672.576 1.116 1.428 1.116.84 0 1.416-.444 1.416-1.116 0-.672-.576-1.104-1.416-1.104Zm-.492-3.276h.972v1.656h-.972v-1.656Zm.648 6.996h.768v.372c0 1.368-.9 2.736-2.472 3.3l-.468-.744c1.356-.456 2.172-1.572 2.172-2.556v-.372Zm.228 0h.732v.372c0 1.044.636 2.148 1.932 2.64l-.42.756c-1.548-.576-2.244-2.016-2.244-3.396v-.372Zm3.756 0h.732v.372c0 1.224-.708 2.772-2.244 3.396l-.408-.756c1.26-.552 1.92-1.74 1.92-2.64v-.372Zm.204 0h.768v.372c0 1.056.816 2.124 2.184 2.556l-.48.744c-1.584-.54-2.472-1.86-2.472-3.3v-.372Zm7.287-6.216c1.572 0 2.7 1.476 2.7 3.78 0 2.316-1.128 3.792-2.7 3.792-1.584 0-2.7-1.476-2.7-3.792 0-2.304 1.116-3.78 2.7-3.78Zm0 .9c-1.044 0-1.752 1.128-1.752 2.88 0 1.764.708 2.916 1.752 2.916s1.752-1.152 1.752-2.916c0-1.752-.708-2.88-1.752-2.88Zm5.052-1.74h.984v10.872h-.984v-10.872Zm-2.676 4.14h3.108v.816h-3.108v-.816Zm8.572 1.452h.984v3.252h-.984v-3.252Zm4.008 0h.996v3.252h-.996v-3.252Zm-6.408 3.06h9.828v.828h-9.828v-.828Zm4.896-7.956c2.292 0 3.936 1.092 3.936 2.796 0 1.692-1.644 2.784-3.936 2.784-2.304 0-3.948-1.092-3.948-2.784 0-1.704 1.644-2.796 3.948-2.796Zm0 .792c-1.74 0-2.988.792-2.988 2.004 0 1.2 1.248 1.992 2.988 1.992s2.976-.792 2.976-1.992c0-1.212-1.236-2.004-2.976-2.004Z"/>
  <rect width="313" height="54" x="23.5" y="388.5" stroke="#3FCC8A" rx="7.5"/>
  <path fill="#999" d="M41.08 486.392v4.592c.624-.016 1.28-.048 1.92-.08v-4.512h-1.92Zm5.424 4.24.112 1.2c-2.864.464-6.176.544-8.64.544l-.176-1.36c.528 0 1.104 0 1.696-.016v-4.608h-1.312v-1.344h7.728v1.344H44.6v4.416a33.587 33.587 0 0 0 1.904-.176Zm-4.896 2.8v3.184h8.064v1.344h-9.728v-4.528h1.664Zm7.488-5.376h2.048v1.36h-2.048v5.008h-1.648v-10.64h1.648v4.272Zm9.267-3.072v2.368c0 2.656 1.472 5.312 3.744 6.336l-.96 1.312c-1.664-.784-2.928-2.384-3.584-4.336-.656 2.096-1.936 3.808-3.68 4.656l-.976-1.376c2.304-1.04 3.808-3.808 3.808-6.592v-2.368h1.648Zm4.896-1.216h1.664v14.496h-1.664v-14.496Zm16.898.016v7.312h-1.663v-7.312h1.663Zm-2.975 4.896.175 1.296c-2.047.4-3.871.512-7.04.512h-1.215V484.6h6.8v1.312h-5.153v3.28c2.833-.016 4.529-.112 6.433-.512Zm-4.849 8.16h8.257v1.296H70.7v-3.84h7.825v-1.264H70.67v-1.28h9.487v3.744h-7.823v1.344Zm16.673-1.856v-1.328h10.016v4.592h-1.648v-3.264h-8.368Zm1.872-8.112v1.424h6.432v-1.424h-6.432Zm4.032 4.224h5.728v1.344H87.534v-1.344h5.712v-1.488h-4v-5.472h1.632v1.472h6.432v-1.472h1.632v5.472H94.91v1.488Zm14.371 5.872c2.112 0 3.312-.448 3.312-1.328 0-.864-1.2-1.328-3.312-1.328s-3.296.464-3.296 1.328c0 .88 1.184 1.328 3.296 1.328Zm0-3.92c3.12 0 4.976.944 4.976 2.592 0 1.664-1.856 2.592-4.976 2.592-3.104 0-4.976-.928-4.976-2.592 0-1.648 1.872-2.592 4.976-2.592Zm-1.76-3.712v1.472h3.552v-1.472a11.8 11.8 0 0 1-1.76.128c-.64 0-1.264-.048-1.792-.128Zm1.792-4.032c-2.16 0-3.456.512-3.456 1.44 0 .928 1.296 1.456 3.456 1.456 2.144 0 3.44-.528 3.44-1.456 0-.928-1.296-1.44-3.44-1.44Zm3.408 5.504h3.12v1.312h-13.072v-1.312h3.104v-1.92c-1.088-.464-1.712-1.2-1.712-2.144 0-1.696 1.984-2.72 5.152-2.72 3.152 0 5.152 1.024 5.152 2.72 0 .944-.64 1.68-1.744 2.16v1.904Zm9.491 2.96c1.168 0 2.016-.8 2.016-2.016s-.848-2.016-2.016-2.016c-1.168 0-2.016.8-2.016 2.016s.848 2.016 2.016 2.016Zm0-5.392c2.064 0 3.584 1.408 3.584 3.376 0 1.984-1.52 3.376-3.584 3.376-2.08 0-3.584-1.392-3.584-3.376 0-1.968 1.504-3.376 3.584-3.376Zm.8-4.368v2h3.376v1.344h-8.464v-1.344h3.44v-2h1.648Zm8.432 5.584v1.376h-2.224v7.28h-1.664v-14.464h1.664v5.808h2.224Zm2.594-4.288h6.848c0 4.304-1.728 7.952-6.688 10.352l-.88-1.312c3.792-1.824 5.584-4.368 5.872-7.696h-5.152v-1.344Zm9.456-1.52h1.648v14.448h-1.648v-14.448Z"/>
  <rect width="54" height="23" x="275" y="479" fill="#999" rx="5"/>
  <path fill="#fff" d="M294.657 490.588h.996v1.644h-.996v-1.644Zm.468-4.008c1.572 0 2.676.864 2.676 2.148 0 1.284-1.104 2.136-2.676 2.136-1.56 0-2.664-.852-2.664-2.136 0-1.284 1.104-2.148 2.664-2.148Zm0 .768c-1.02 0-1.728.564-1.728 1.38 0 .828.708 1.38 1.728 1.38 1.032 0 1.74-.552 1.74-1.38 0-.816-.708-1.38-1.74-1.38Zm4.14-1.248h.996v8.292h-.996V486.1Zm.576 3.66h2.004v.828h-2.004v-.828Zm-6.444 6.108h7.248v.828h-7.248v-.828Zm0-2.184h.996v2.544h-.996v-2.544Zm-1.428-.9-.132-.816c1.908 0 4.548-.024 6.756-.36l.072.732c-2.268.42-4.836.444-6.696.444Zm14.067-.336h.984v2.664h-.984v-2.664Zm3.468-.024h.972v2.676h-.972v-2.676Zm-6.204 2.352h9.828v.828H303.3v-.828Zm1.188-7.884h7.428v3.276h-6.408v2.184h-.984v-2.976h6.408v-1.68h-6.444v-.804Zm.036 5.016h7.644v.816h-7.644v-.816Z"/>
  <rect width="313" height="54" x="23.5" y="463.5" stroke="#999" rx="7.5"/>
  <path fill="#252321" d="M334.14 172.561c.04-.338.06-.687.06-1.058 0-.36-.02-.72-.07-1.058l2.03-1.777c.18-.158.23-.462.12-.687l-1.92-3.736a.465.465 0 0 0-.59-.247l-2.39 1.08a6.91 6.91 0 0 0-1.62-1.058l-.36-2.858c-.04-.27-.24-.461-.48-.461h-3.84c-.24 0-.43.191-.47.461l-.36 2.858c-.59.27-1.13.642-1.62 1.058l-2.39-1.08c-.22-.09-.47 0-.59.247l-1.91 3.736c-.12.236-.08.529.12.687l2.03 1.777c-.05.338-.09.709-.09 1.058 0 .349.02.72.07 1.058l-2.03 1.778c-.18.157-.23.461-.12.686l1.92 3.736c.12.248.37.326.59.248l2.39-1.081c.5.428 1.03.788 1.62 1.058l.36 2.858c.05.27.24.462.48.462h3.84c.24 0 .44-.192.47-.462l.36-2.858a6.71 6.71 0 0 0 1.62-1.058l2.39 1.081c.22.09.47 0 .59-.248l1.92-3.736c.12-.247.07-.529-.12-.686l-2.01-1.778Zm-7.14 2.993c-1.98 0-3.6-1.823-3.6-4.051s1.62-4.051 3.6-4.051 3.6 1.823 3.6 4.051-1.62 4.051-3.6 4.051Z"/>
  <path fill="#fff" d="M26 65h44v64H26z"/>
  <path fill="#BCBCBC" d="M45.672 79.768H47v2.576h-1.328v-2.576Zm6.64-5.984h1.328v8.512h-1.328v-8.512Zm-10.4 6.432-.16-.992c2.784 0 6.32-.016 9.408-.368l.08.864c-3.168.464-6.624.496-9.328.496Zm2.032 2.608h9.696v3.008h-8.368v1.632h-1.296v-2.512h8.352v-1.168h-8.384v-.96Zm.032 4.304H54.12v.96H43.976v-.96Zm5.456-6.464h3.296v.864h-3.296v-.864Zm-3.008-6.608c2.144 0 3.552.832 3.552 2.176 0 1.344-1.408 2.176-3.552 2.176-2.16 0-3.568-.832-3.568-2.176 0-1.344 1.408-2.176 3.568-2.176Zm0 .928c-1.424 0-2.336.48-2.336 1.248S45 77.48 46.424 77.48c1.392 0 2.304-.48 2.304-1.248s-.912-1.248-2.304-1.248Z"/>
  <g clip-path="url(#d)">
    <path fill="#fff" d="M33 93h30v31H33z"/>
    <path fill="#D9D9D9" d="M63 109c0 8.284-6.716 15-15 15-8.284 0-15-6.716-15-15 0-8.284 6.716-15 15-15 8.284 0 15 6.716 15 15Z"/>
    <path fill="#FFFEFF" d="M41.266 115v-1.064h2.282v-7.644h-1.834v-.826c.924-.154 1.582-.392 2.128-.728h.98v9.198h2.072V115h-5.628Zm11.148.196c-1.974 0-3.444-1.694-3.444-5.082 0-4.018 1.806-5.558 3.794-5.558 1.064 0 1.848.448 2.408 1.05l-.714.784a2.174 2.174 0 0 0-1.638-.77c-1.442 0-2.646 1.134-2.646 4.494 0 2.632.798 4.074 2.24 4.074.98 0 1.736-.938 1.736-2.324 0-1.4-.616-2.282-1.848-2.282-.658 0-1.484.392-2.17 1.414l-.042-1.022c.63-.826 1.582-1.33 2.408-1.33 1.736 0 2.856 1.064 2.856 3.22 0 1.988-1.358 3.332-2.94 3.332Z"/>
  </g>
  <path fill="#fff" d="M70 65h44v64H70z"/>
  <path fill="#BCBCBC" d="M89.544 82.408h1.328v2.352h-1.328v-2.352Zm6.08-8.624h1.328v14.464h-1.328V73.784Zm.896 6.144h2.672v1.12H96.52v-1.12Zm-10.704 5.568-.192-1.104c2.592 0 6.128-.032 9.12-.464l.112.992c-3.12.56-6.512.576-9.04.576Zm.048-9.968h8.656V76.6h-8.656v-1.072Zm4.336 1.92c2.016 0 3.408 1.056 3.408 2.672 0 1.632-1.392 2.672-3.408 2.672s-3.392-1.04-3.392-2.672c0-1.616 1.376-2.672 3.392-2.672Zm0 1.024c-1.296 0-2.144.656-2.144 1.648 0 .992.848 1.648 2.144 1.648 1.296 0 2.16-.656 2.16-1.648 0-.992-.864-1.648-2.16-1.648Zm-.656-4.672h1.328v2.448h-1.328V73.8Z"/>
  <g clip-path="url(#e)">
    <path fill="#fff" d="M77 93h30v31H77z"/>
    <path fill="#D9D9D9" d="M107 109c0 8.284-6.716 15-15 15-8.284 0-15-6.716-15-15 0-8.284 6.716-15 15-15 8.284 0 15 6.716 15 15Z"/>
    <path fill="#FFFEFF" d="M85.266 115v-1.064h2.282v-7.644h-1.834v-.826c.924-.154 1.582-.392 2.128-.728h.98v9.198h2.072V115h-5.628Zm9.692 0c.182-3.878.882-6.37 2.898-9.17h-4.97v-1.092h6.412v.77c-2.408 3.094-2.842 5.488-3.01 9.492h-1.33Z"/>
  </g>
  <path fill="#fff" d="M114 65h44v64h-44z"/>
  <path fill="#BCBCBC" d="M135.64 74.296h1.168v.8c0 2.768-2.816 4.752-5.824 5.264l-.528-1.072c2.64-.4 5.184-2.128 5.184-4.192v-.8Zm.24 0h1.152v.8c0 2.016 2.576 3.792 5.184 4.192l-.528 1.072c-2.976-.512-5.808-2.528-5.808-5.264v-.8Zm-.24 8.448h1.312v5.504h-1.312v-5.504Zm-5.84-.816h13.072v1.104H129.8v-1.104Z"/>
  <g clip-path="url(#f)">
    <path fill="#fff" d="M121 93h30v31h-30z"/>
    <path fill="#3FCC8A" fill-opacity=".7" d="M151 109c0 8.284-6.716 15-15 15-8.284 0-15-6.716-15-15 0-8.284 6.716-15 15-15 8.284 0 15 6.716 15 15Z"/>
    <path fill="#FFFEFF" d="M129.266 115v-1.064h2.282v-7.644h-1.834v-.826c.924-.154 1.582-.392 2.128-.728h.98v9.198h2.072V115h-5.628Zm10.84.196c-1.89 0-3.276-1.148-3.276-2.73 0-1.386.952-2.338 1.89-2.842v-.056c-.756-.518-1.4-1.302-1.4-2.38 0-1.554 1.218-2.59 2.828-2.59 1.75 0 2.814 1.12 2.814 2.688 0 1.092-.756 2.002-1.372 2.478v.07c.896.518 1.736 1.302 1.736 2.702 0 1.498-1.302 2.66-3.22 2.66Zm.7-5.754c.7-.616 1.064-1.316 1.064-2.086 0-1.008-.644-1.82-1.75-1.82-.938 0-1.624.672-1.624 1.652 0 1.232 1.106 1.778 2.31 2.254Zm-.672 4.788c1.176 0 1.96-.714 1.96-1.736 0-1.372-1.26-1.89-2.702-2.478-.84.532-1.414 1.344-1.414 2.324 0 1.092.924 1.89 2.156 1.89Z"/>
  </g>
  <path fill="#fff" d="M158 65h44v64h-44z"/>
  <path fill="#BCBCBC" d="M175.464 74.376h9.728v4.928h-9.728v-4.928Zm8.416 1.072h-7.12v2.784h7.12v-2.784Zm-10.096 5.664h13.072v1.072h-13.072v-1.072Zm5.888-2.096h1.312v2.496h-1.312v-2.496Zm-4.432 4.656h10v4.576h-1.328V84.76h-8.672v-1.088Z"/>
  <g clip-path="url(#g)">
    <path fill="#fff" d="M165 93h30v31h-30z"/>
    <path fill="#3FCC8A" d="M195 109c0 8.284-6.716 15-15 15-8.284 0-15-6.716-15-15 0-8.284 6.716-15 15-15 8.284 0 15 6.716 15 15Z"/>
    <path fill="#FFFEFF" d="M173.266 115v-1.064h2.282v-7.644h-1.834v-.826c.924-.154 1.582-.392 2.128-.728h.98v9.198h2.072V115h-5.628Zm10.21.196c-1.12 0-1.904-.448-2.478-1.05l.714-.812a2.28 2.28 0 0 0 1.722.798c1.372 0 2.562-1.19 2.562-4.704 0-2.52-.798-3.878-2.24-3.878-.98 0-1.736.924-1.736 2.338 0 1.372.616 2.282 1.834 2.282.686 0 1.484-.406 2.156-1.428l.07 1.022c-.644.812-1.554 1.344-2.436 1.344-1.722 0-2.828-1.092-2.828-3.22 0-1.988 1.344-3.332 2.94-3.332 1.974 0 3.444 1.61 3.444 4.872 0 4.172-1.792 5.768-3.724 5.768Z"/>
  </g>
  <path fill="#fff" d="M202 65h44v64h-44z"/>
  <path fill="#BCBCBC" d="M219.464 74.536h9.312v1.088h-9.312v-1.088Zm-1.664 5.328h13.104v1.088H217.8v-1.088Zm10.112-5.328h1.296v1.072c0 1.232 0 2.64-.48 4.64l-1.296-.064c.48-1.984.48-3.376.48-4.576v-1.072ZM219.4 82.92h9.856v5.136H219.4V82.92Zm8.56 1.056h-7.264v3.008h7.264v-3.008Z"/>
  <g clip-path="url(#h)">
    <path fill="#fff" d="M209 93h30v31h-30z"/>
    <path fill="#3FCC8A" fill-opacity=".3" d="M239 109c0 8.284-6.716 15-15 15-8.284 0-15-6.716-15-15 0-8.284 6.716-15 15-15 8.284 0 15 6.716 15 15Z"/>
    <path fill="#FFFEFF" d="M216.65 115v-.742c3.22-2.814 4.69-4.872 4.69-6.622 0-1.176-.602-2.044-1.876-2.044-.84 0-1.568.518-2.142 1.19l-.742-.714c.84-.91 1.736-1.512 3.038-1.512 1.834 0 2.982 1.19 2.982 3.024 0 2.058-1.61 4.144-4.032 6.426a17.4 17.4 0 0 1 1.68-.098h2.842V115h-6.44Zm11.442.196c-1.96 0-3.206-1.778-3.206-5.362 0-3.556 1.246-5.278 3.206-5.278 1.932 0 3.178 1.722 3.178 5.278 0 3.584-1.246 5.362-3.178 5.362Zm0-1.036c1.162 0 1.946-1.302 1.946-4.326 0-2.982-.784-4.256-1.946-4.256-1.176 0-1.974 1.274-1.974 4.256 0 3.024.798 4.326 1.974 4.326Z"/>
  </g>
  <rect width="44" height="64" x="246" y="65" fill="#888" rx="12"/>
  <path fill="#FFFEFF" d="M263.48 81.288h9.936v1.072h-9.936v-1.072Zm-1.68 4.064h13.104v1.104H261.8v-1.104Zm5.872-3.504h1.312v4.016h-1.312v-4.016Zm-4.192-6.896h9.776v1.088h-8.432v5.648h-1.344v-6.736Zm.912 3.104h8.56v1.072h-8.56v-1.072Z"/>
  <g clip-path="url(#i)">
    <path fill="#888" d="M253 93h30v31h-30z"/>
    <path fill="#D9D9D9" d="M283 109c0 8.284-6.716 15-15 15-8.284 0-15-6.716-15-15 0-8.284 6.716-15 15-15 8.284 0 15 6.716 15 15Z"/>
    <path fill="#FFFEFF" d="M260.65 115v-.742c3.22-2.814 4.69-4.872 4.69-6.622 0-1.176-.602-2.044-1.876-2.044-.84 0-1.568.518-2.142 1.19l-.742-.714c.84-.91 1.736-1.512 3.038-1.512 1.834 0 2.982 1.19 2.982 3.024 0 2.058-1.61 4.144-4.032 6.426a17.4 17.4 0 0 1 1.68-.098h2.842V115h-6.44Zm8.782 0v-1.064h2.282v-7.644h-1.834v-.826c.924-.154 1.582-.392 2.128-.728h.98v9.198h2.072V115h-5.628Z"/>
  </g>
  <path fill="#fff" d="M290 65h44v64h-44z"/>
  <path fill="#BCBCBC" d="M309.848 74.312c2.16 0 3.744 1.312 3.744 3.216 0 1.888-1.584 3.2-3.744 3.2-2.144 0-3.728-1.312-3.728-3.2 0-1.904 1.584-3.216 3.728-3.216Zm0 1.088c-1.392 0-2.448.88-2.448 2.128 0 1.248 1.056 2.112 2.448 2.112 1.408 0 2.448-.864 2.448-2.112 0-1.248-1.04-2.128-2.448-2.128Zm6.464-1.616h1.344v7.408h-1.344v-7.408Zm-8.016 8.112h9.36v3.52h-8.032v2.176h-1.296v-3.168h8.016v-1.456h-8.048v-1.072Zm.032 5.104h9.808v1.056h-9.808V87Z"/>
  <g clip-path="url(#j)">
    <path fill="#fff" d="M297 93h30v31h-30z"/>
    <path fill="#D9D9D9" d="M327 109c0 8.284-6.716 15-15 15-8.284 0-15-6.716-15-15 0-8.284 6.716-15 15-15 8.284 0 15 6.716 15 15Z"/>
    <path fill="#FFFEFF" d="M304.65 115v-.742c3.22-2.814 4.69-4.872 4.69-6.622 0-1.176-.602-2.044-1.876-2.044-.84 0-1.568.518-2.142 1.19l-.742-.714c.84-.91 1.736-1.512 3.038-1.512 1.834 0 2.982 1.19 2.982 3.024 0 2.058-1.61 4.144-4.032 6.426a17.4 17.4 0 0 1 1.68-.098h2.842V115h-6.44Zm8.166 0v-.742c3.22-2.814 4.69-4.872 4.69-6.622 0-1.176-.602-2.044-1.876-2.044-.84 0-1.568.518-2.142 1.19l-.742-.714c.84-.91 1.736-1.512 3.038-1.512 1.834 0 2.982 1.19 2.982 3.024 0 2.058-1.61 4.144-4.032 6.426a17.4 17.4 0 0 1 1.68-.098h2.842V115h-6.44Z"/>
  </g>
  <defs>
    <clipPath id="b">
      <path fill="#fff" d="M37 242h16v16H37z"/>
    </clipPath>
    <clipPath id="c">
      <path fill="#fff" d="M37 337h16v16H37z"/>
    </clipPath>
    <clipPath id="d">
      <path fill="#fff" d="M33 93h30v31H33z"/>
    </clipPath>
    <clipPath id="e">
      <path fill="#fff" d="M77 93h30v31H77z"/>
    </clipPath>
    <clipPath id="f">
      <path fill="#fff" d="M121 93h30v31h-30z"/>
    </clipPath>
    <clipPath id="g">
      <path fill="#fff" d="M165 93h30v31h-30z"/>
    </clipPath>
    <clipPath id="h">
      <path fill="#fff" d="M209 93h30v31h-30z"/>
    </clipPath>
    <clipPath id="i">
      <path fill="#fff" d="M253 93h30v31h-30z"/>
    </clipPath>
    <clipPath id="j">
      <path fill="#fff" d="M297 93h30v31h-30z"/>
    </clipPath>
  </defs>
</svg>
