<svg xmlns="http://www.w3.org/2000/svg" width="296" height="157" fill="none" viewBox="0 0 296 157">
  <g filter="url(#a)">
    <rect width="165" height="44" y="57" fill="#fff" rx="20"/>
    <rect width="164" height="43" x=".5" y="57.5" stroke="#3FCC8A" rx="19.5"/>
    <path fill="#3FCC8A" d="M26.719 78.076h1.168c2.96 0 4.576-.032 6.544-.352l.144 1.312c-1.984.32-3.68.352-6.688.352h-1.168v-1.312Zm0-5.2h6.768v1.312h-5.088v4.688h-1.68v-6Zm1.152 2.576h5.328v1.28H27.87v-1.28Zm7.984-3.248h1.68v7.568h-1.68v-7.568Zm.976 3.04h2.752v1.36H36.83v-1.36Zm-8.736 5.2h9.44v3.648h-7.76v1.968H28.11v-3.168h7.776V81.74h-7.792v-1.296Zm.016 4.96h9.904V86.7H28.11v-1.296Zm13.234-1.744h13.248v1.376H41.345V83.66Zm5.76-3.536h1.664v3.888h-1.664v-3.888Zm-4.288-6.768h10.224v7.024H42.817v-7.024ZM51.41 74.7h-6.944v4.336h6.944V74.7Zm20.145-.416h2.528v1.392h-2.528v-1.392Zm0 3.152h2.528v1.376h-2.528v-1.376Zm-1.168-5.232h1.68v8.656h-1.68v-8.656Zm-7.936 9.312h9.616v5.312h-1.68V82.86H62.45v-1.344Zm2.272-8.48c2.224 0 3.888 1.456 3.888 3.52s-1.664 3.504-3.888 3.504-3.872-1.44-3.872-3.504 1.648-3.52 3.872-3.52Zm0 1.424c-1.296 0-2.24.816-2.24 2.096 0 1.28.944 2.096 2.24 2.096 1.296 0 2.256-.816 2.256-2.096 0-1.28-.96-2.096-2.256-2.096Zm15.232 5.136H93.17v1.36H79.954v-1.36Zm5.776-2.032h1.664v2.384H85.73v-2.384Zm-4.304 4.64h10.128v4.624H89.89v-3.296h-8.464v-1.328Zm.256-9.648h1.648v1.488h6.48v-1.488h1.664v5.552h-9.792v-5.552Zm1.648 2.768v1.456h6.48v-1.456h-6.48Zm14.98 1.808h1.663v2.72H98.31v-2.72Zm5.263 0h1.664v2.72h-1.664v-2.72Zm-8.4 2.176h13.216v1.328H95.173v-1.328Zm6.592 2.272c3.136 0 5.04.944 5.04 2.608 0 1.68-1.904 2.624-5.04 2.624-3.152 0-5.04-.944-5.04-2.624 0-1.664 1.888-2.608 5.04-2.608Zm0 1.28c-2.144 0-3.344.464-3.344 1.328 0 .88 1.2 1.344 3.344 1.344s3.344-.464 3.344-1.344c0-.864-1.2-1.328-3.344-1.328Zm.016-10.416c3.2 0 5.216 1.04 5.216 2.768 0 1.728-2.016 2.736-5.216 2.736s-5.2-1.008-5.2-2.736c0-1.728 2-2.768 5.2-2.768Zm0 1.296c-2.176 0-3.472.512-3.472 1.472 0 .944 1.296 1.456 3.472 1.456 2.192 0 3.488-.512 3.488-1.456 0-.96-1.296-1.472-3.488-1.472Zm18.291-1.536h1.664v14.624h-1.664V72.204Zm1.28 5.872h2.656v1.392h-2.656v-1.392Zm-11.024-3.616h8.576v1.344h-8.576V74.46Zm4.336 2.4c2.08 0 3.616 1.408 3.616 3.408 0 2.016-1.536 3.424-3.616 3.424-2.096 0-3.632-1.408-3.632-3.424 0-2 1.536-3.408 3.632-3.408Zm0 1.376c-1.184 0-2.032.8-2.032 2.032s.848 2.048 2.032 2.048c1.168 0 2.016-.816 2.016-2.048 0-1.232-.848-2.032-2.016-2.032Zm-.864-5.824h1.68v2.608h-1.68v-2.608Zm22.211-.208h1.68v14.624h-1.68V72.204Zm-4.288 1.552h1.648c0 4.336-1.728 8.016-6.752 10.464l-.88-1.344c4.208-2.032 5.984-4.928 5.984-8.832v-.288Zm-5.264 0h6.016V75.1h-6.016v-1.344Z"/>
  </g>
  <g filter="url(#b)">
    <rect width="165" height="44" x="85" y="113" fill="#fff" rx="20"/>
    <rect width="164" height="43" x="85.5" y="113.5" stroke="#3FCC8A" rx="19.5"/>
    <path fill="#3FCC8A" d="M134.796 130.22h4.4v1.36h-4.4v-1.36Zm0 3.312h4.4v1.36h-4.4v-1.36Zm-2.56-4.496c2.16 0 3.808 1.472 3.808 3.52s-1.648 3.52-3.808 3.52c-2.176 0-3.808-1.472-3.808-3.52s1.632-3.52 3.808-3.52Zm0 1.424c-1.264 0-2.208.816-2.208 2.096 0 1.264.944 2.096 2.208 2.096 1.264 0 2.208-.832 2.208-2.096 0-1.28-.944-2.096-2.208-2.096Zm6.432-2.256h1.68v8.608h-1.68v-8.608Zm-3.2 8.944c3.04 0 4.928 1.04 4.928 2.832 0 1.792-1.888 2.832-4.928 2.832s-4.928-1.04-4.928-2.832c0-1.792 1.888-2.832 4.928-2.832Zm0 1.296c-2.08 0-3.28.544-3.28 1.536 0 .976 1.2 1.52 3.28 1.52s3.28-.544 3.28-1.52c0-.992-1.2-1.536-3.28-1.536Zm18.883-8.224h2.528v1.376h-2.528v-1.376Zm0 3.136h2.528v1.376h-2.528v-1.376Zm-6.832-4.32c2.224 0 3.888 1.44 3.888 3.504 0 2.032-1.664 3.472-3.888 3.472s-3.872-1.44-3.872-3.472c0-2.064 1.648-3.504 3.872-3.504Zm0 1.408c-1.296 0-2.24.832-2.24 2.096 0 1.264.944 2.064 2.24 2.064 1.296 0 2.256-.8 2.256-2.064s-.96-2.096-2.256-2.096Zm5.664-2.24h1.68v8.608h-1.68v-8.608Zm-3.024 8.992c2.992 0 4.864 1.056 4.864 2.816 0 1.76-1.872 2.8-4.864 2.8-3.008 0-4.88-1.04-4.88-2.8 0-1.76 1.872-2.816 4.88-2.816Zm0 1.344c-2.032 0-3.216.512-3.216 1.472s1.184 1.472 3.216 1.472 3.2-.512 3.2-1.472-1.168-1.472-3.2-1.472Zm19.379-10.336h1.6v14.624h-1.6v-14.624Zm-5.104 5.136h2.64v1.376h-2.64v-1.376Zm2.16-4.848h1.568v13.616h-1.568v-13.616Zm-5.12 2.032h1.28v1.696c0 3.232-1.088 6.368-3.312 7.776l-1.008-1.248c2.08-1.28 3.04-3.92 3.04-6.528v-1.696Zm.368 0h1.264v1.696c0 2.496.928 4.992 2.976 6.192l-.992 1.232c-2.224-1.328-3.248-4.288-3.248-7.424v-1.696Zm-2.944-.72h6.608v1.36h-6.608v-1.36Zm21.344 7.792h9.856v5.248h-1.68v-3.92h-8.176v-1.328Zm8.176-9.392h1.68v8.64h-1.68v-8.64Zm-3.328 3.584h3.776v1.36h-3.776v-1.36Zm-6.48-2.496h6.784v6.656h-6.784v-6.656Zm5.136 1.328h-3.488v4h3.488v-4Zm19.843-2.416h1.68v14.624h-1.68v-14.624Zm-4.288 1.552h1.648c0 4.336-1.728 8.016-6.752 10.464l-.88-1.344c4.208-2.032 5.984-4.928 5.984-8.832v-.288Zm-5.264 0h6.016v1.344h-6.016v-1.344Z"/>
  </g>
  <g filter="url(#c)">
    <rect width="165" height="44" x="131" fill="#fff" rx="20"/>
    <rect width="164" height="43" x="131.5" y=".5" stroke="#3FCC8A" rx="19.5"/>
    <path fill="#3FCC8A" d="M168.816 24.34h9.328v5.312h-9.328V24.34Zm7.68 1.328h-6.032v2.64h6.032v-2.64Zm-.032-10.464h1.68v8.4h-1.68v-8.4Zm1.216 3.376h2.528v1.376h-2.528V18.58Zm-10.432-2.608h1.664v2.032h3.568v-2.032h1.648v6.8h-6.88v-6.8Zm1.664 3.328v2.144h3.568V19.3h-3.568Zm18.931 1.456h2.592v1.36h-2.592v-1.36Zm4.992-5.552h1.6v14.624h-1.6V15.204Zm-2.944.272h1.584v13.648h-1.584V15.476Zm-4.656.864c1.92 0 3.152 1.984 3.152 5.184 0 3.216-1.232 5.2-3.152 5.2-1.904 0-3.136-1.984-3.136-5.2 0-3.2 1.232-5.184 3.136-5.184Zm0 1.568c-.992 0-1.6 1.312-1.6 3.616 0 2.304.608 3.616 1.6 3.616 1.008 0 1.616-1.312 1.616-3.616 0-2.304-.608-3.616-1.616-3.616Zm26.928-.752h2.528v1.376h-2.528v-1.376Zm0 3.024h2.528v1.376h-2.528V20.18Zm-7.456-4.224h1.392V17.3c0 2.864-1.456 5.264-4.08 6.224l-.88-1.328c2.32-.816 3.568-2.784 3.568-4.896v-1.344Zm.336 0h1.344v1.312c0 1.92 1.248 3.776 3.44 4.528l-.864 1.312c-2.496-.912-3.92-3.184-3.92-5.84v-1.312Zm5.952-.752h1.68v8.512h-1.68v-8.512Zm-7.648 9.136h9.328v5.312h-9.328V24.34Zm7.68 1.328h-6.032v2.64h6.032v-2.64Zm6.659-9.728h10.816v1.36h-10.816v-1.36Zm.08 5.024h10.64v1.36h-10.64v-1.36Zm1.984-3.936h1.68V21.7h-1.68v-4.672Zm5.024 0h1.664V21.7h-1.664v-4.672Zm-8.304 6.768h13.248v1.36H216.47v-1.36Zm5.776.608h1.664v5.424h-1.664v-5.424Zm19.123-9.2h1.664v14.624h-1.664V15.204Zm1.28 5.872h2.656v1.392h-2.656v-1.392Zm-11.024-3.616h8.576v1.344h-8.576V17.46Zm4.336 2.4c2.08 0 3.616 1.408 3.616 3.408 0 2.016-1.536 3.424-3.616 3.424-2.096 0-3.632-1.408-3.632-3.424 0-2 1.536-3.408 3.632-3.408Zm0 1.376c-1.184 0-2.032.8-2.032 2.032s.848 2.048 2.032 2.048c1.168 0 2.016-.816 2.016-2.048 0-1.232-.848-2.032-2.016-2.032Zm-.864-5.824h1.68v2.608h-1.68v-2.608Zm22.211-.208h1.68v14.624h-1.68V15.204Zm-4.288 1.552h1.648c0 4.336-1.728 8.016-6.752 10.464l-.88-1.344c4.208-2.032 5.984-4.928 5.984-8.832v-.288Zm-5.264 0h6.016V18.1h-6.016v-1.344Z"/>
  </g>
  <defs>
    <filter id="a" width="169" height="48" x="0" y="53" color-interpolation-filters="sRGB" filterUnits="userSpaceOnUse">
      <feFlood flood-opacity="0" result="BackgroundImageFix"/>
      <feBlend in="SourceGraphic" in2="BackgroundImageFix" result="shape"/>
      <feColorMatrix in="SourceAlpha" result="hardAlpha" values="0 0 0 0 0 0 0 0 0 0 0 0 0 0 0 0 0 0 127 0"/>
      <feOffset dx="4" dy="-4"/>
      <feGaussianBlur stdDeviation="2"/>
      <feComposite in2="hardAlpha" k2="-1" k3="1" operator="arithmetic"/>
      <feColorMatrix values="0 0 0 0 0.24624 0 0 0 0 0.800781 0 0 0 0 0.540015 0 0 0 0.25 0"/>
      <feBlend in2="shape" result="effect1_innerShadow_278_1030"/>
    </filter>
    <filter id="b" width="169" height="48" x="81" y="109" color-interpolation-filters="sRGB" filterUnits="userSpaceOnUse">
      <feFlood flood-opacity="0" result="BackgroundImageFix"/>
      <feBlend in="SourceGraphic" in2="BackgroundImageFix" result="shape"/>
      <feColorMatrix in="SourceAlpha" result="hardAlpha" values="0 0 0 0 0 0 0 0 0 0 0 0 0 0 0 0 0 0 127 0"/>
      <feOffset dx="-4" dy="-4"/>
      <feGaussianBlur stdDeviation="2"/>
      <feComposite in2="hardAlpha" k2="-1" k3="1" operator="arithmetic"/>
      <feColorMatrix values="0 0 0 0 0.24624 0 0 0 0 0.800781 0 0 0 0 0.540015 0 0 0 0.25 0"/>
      <feBlend in2="shape" result="effect1_innerShadow_278_1030"/>
    </filter>
    <filter id="c" width="169" height="48" x="127" y="0" color-interpolation-filters="sRGB" filterUnits="userSpaceOnUse">
      <feFlood flood-opacity="0" result="BackgroundImageFix"/>
      <feBlend in="SourceGraphic" in2="BackgroundImageFix" result="shape"/>
      <feColorMatrix in="SourceAlpha" result="hardAlpha" values="0 0 0 0 0 0 0 0 0 0 0 0 0 0 0 0 0 0 127 0"/>
      <feOffset dx="-4" dy="4"/>
      <feGaussianBlur stdDeviation="2"/>
      <feComposite in2="hardAlpha" k2="-1" k3="1" operator="arithmetic"/>
      <feColorMatrix values="0 0 0 0 0.24624 0 0 0 0 0.800781 0 0 0 0 0.540015 0 0 0 0.25 0"/>
      <feBlend in2="shape" result="effect1_innerShadow_278_1030"/>
    </filter>
  </defs>
</svg>
