<svg width="20" height="20" viewBox="0 0 20 20" fill="none" xmlns="http://www.w3.org/2000/svg">
<path d="M9.99992 11.6667C10.9204 11.6667 11.6666 10.9205 11.6666 10C11.6666 9.07957 10.9204 8.33337 9.99992 8.33337C9.07944 8.33337 8.33325 9.07957 8.33325 10C8.33325 10.9205 9.07944 11.6667 9.99992 11.6667Z" fill="#333D4B"/>
<path d="M4.37492 11.6667C5.29539 11.6667 6.04159 10.9205 6.04159 10C6.04159 9.07957 5.29539 8.33337 4.37492 8.33337C3.45444 8.33337 2.70825 9.07957 2.70825 10C2.70825 10.9205 3.45444 11.6667 4.37492 11.6667Z" fill="#333D4B"/>
<path d="M15.6249 11.6667C16.5454 11.6667 17.2916 10.9205 17.2916 10C17.2916 9.07957 16.5454 8.33337 15.6249 8.33337C14.7044 8.33337 13.9583 9.07957 13.9583 10C13.9583 10.9205 14.7044 11.6667 15.6249 11.6667Z" fill="#333D4B"/>
</svg>
