<svg width="66" height="66" viewBox="0 0 66 66" fill="none" xmlns="http://www.w3.org/2000/svg">
<g filter="url(#filter0_d_357_752)">
<circle cx="33" cy="31" r="23" fill="#3FCC8A"/>
<path d="M32.75 36.4167C31.1917 36.4167 29.8576 35.8618 28.7479 34.7521C27.6382 33.6424 27.0833 32.3083 27.0833 30.75C27.0833 29.1917 27.6382 27.8576 28.7479 26.7479C29.8576 25.6382 31.1917 25.0833 32.75 25.0833C34.3083 25.0833 35.6424 25.6382 36.7521 26.7479C37.8618 27.8576 38.4167 29.1917 38.4167 30.75C38.4167 32.3083 37.8618 33.6424 36.7521 34.7521C35.6424 35.8618 34.3083 36.4167 32.75 36.4167ZM32.75 33.5833C33.5292 33.5833 34.1962 33.3059 34.751 32.751C35.3059 32.1962 35.5833 31.5292 35.5833 30.75C35.5833 29.9708 35.3059 29.3038 34.751 28.749C34.1962 28.1941 33.5292 27.9167 32.75 27.9167C31.9708 27.9167 31.3038 28.1941 30.749 28.749C30.1941 29.3038 29.9167 29.9708 29.9167 30.75C29.9167 31.5292 30.1941 32.1962 30.749 32.751C31.3038 33.3059 31.9708 33.5833 32.75 33.5833ZM22.8333 43.5C22.0542 43.5 21.3872 43.2226 20.8323 42.6677C20.2774 42.1128 20 41.4458 20 40.6667V35H22.8333V40.6667H28.5V43.5H22.8333ZM37 43.5V40.6667H42.6667V35H45.5V40.6667C45.5 41.4458 45.2226 42.1128 44.6677 42.6677C44.1128 43.2226 43.4458 43.5 42.6667 43.5H37ZM20 26.5V20.8333C20 20.0542 20.2774 19.3872 20.8323 18.8323C21.3872 18.2774 22.0542 18 22.8333 18H28.5V20.8333H22.8333V26.5H20ZM42.6667 26.5V20.8333H37V18H42.6667C43.4458 18 44.1128 18.2774 44.6677 18.8323C45.2226 19.3872 45.5 20.0542 45.5 20.8333V26.5H42.6667Z" fill="#FFFEFF"/>
</g>
<defs>
<filter id="filter0_d_357_752" x="0" y="0" width="66" height="66" filterUnits="userSpaceOnUse" color-interpolation-filters="sRGB">
<feFlood flood-opacity="0" result="BackgroundImageFix"/>
<feColorMatrix in="SourceAlpha" type="matrix" values="0 0 0 0 0 0 0 0 0 0 0 0 0 0 0 0 0 0 127 0" result="hardAlpha"/>
<feOffset dy="2"/>
<feGaussianBlur stdDeviation="5"/>
<feComposite in2="hardAlpha" operator="out"/>
<feColorMatrix type="matrix" values="0 0 0 0 0 0 0 0 0 0 0 0 0 0 0 0 0 0 0.15 0"/>
<feBlend mode="normal" in2="BackgroundImageFix" result="effect1_dropShadow_357_752"/>
<feBlend mode="normal" in="SourceGraphic" in2="effect1_dropShadow_357_752" result="shape"/>
</filter>
</defs>
</svg>
