<svg width="46" height="46" viewBox="0 0 46 46" fill="none" xmlns="http://www.w3.org/2000/svg">
<circle cx="23" cy="23" r="23" fill="#3FCC8A"/>
<mask id="mask0_511_917" style="mask-type:alpha" maskUnits="userSpaceOnUse" x="10" y="10" width="26" height="26">
<rect x="10" y="10" width="26" height="26" fill="#D9D9D9"/>
</mask>
<g mask="url(#mask0_511_917)">
<path d="M22.9998 28.9583C24.354 28.9583 25.505 28.4844 26.453 27.5365C27.4009 26.5885 27.8748 25.4375 27.8748 24.0833C27.8748 22.7292 27.4009 21.5781 26.453 20.6302C25.505 19.6823 24.354 19.2083 22.9998 19.2083C21.6457 19.2083 20.4946 19.6823 19.5467 20.6302C18.5988 21.5781 18.1248 22.7292 18.1248 24.0833C18.1248 25.4375 18.5988 26.5885 19.5467 27.5365C20.4946 28.4844 21.6457 28.9583 22.9998 28.9583ZM22.9998 26.7917C22.2415 26.7917 21.6005 26.5299 21.0769 26.0063C20.5533 25.4826 20.2915 24.8417 20.2915 24.0833C20.2915 23.325 20.5533 22.684 21.0769 22.1604C21.6005 21.6368 22.2415 21.375 22.9998 21.375C23.7582 21.375 24.3991 21.6368 24.9228 22.1604C25.4464 22.684 25.7082 23.325 25.7082 24.0833C25.7082 24.8417 25.4464 25.4826 24.9228 26.0063C24.3991 26.5299 23.7582 26.7917 22.9998 26.7917ZM14.3332 32.75C13.7373 32.75 13.2273 32.5378 12.803 32.1135C12.3787 31.6892 12.1665 31.1792 12.1665 30.5833V17.5833C12.1665 16.9875 12.3787 16.4774 12.803 16.0531C13.2273 15.6288 13.7373 15.4167 14.3332 15.4167H17.7457L19.7498 13.25H26.2498L28.254 15.4167H31.6665C32.2623 15.4167 32.7724 15.6288 33.1967 16.0531C33.621 16.4774 33.8332 16.9875 33.8332 17.5833V30.5833C33.8332 31.1792 33.621 31.6892 33.1967 32.1135C32.7724 32.5378 32.2623 32.75 31.6665 32.75H14.3332ZM14.3332 30.5833H31.6665V17.5833H27.279L25.3019 15.4167H20.6978L18.7207 17.5833H14.3332V30.5833Z" fill="#FFFEFF"/>
</g>
</svg>
