<svg width="19" height="19" viewBox="0 0 19 19" fill="none" xmlns="http://www.w3.org/2000/svg">
<path d="M9.46058 14.25C9.73766 14.25 9.97186 14.1544 10.1632 13.9631C10.3545 13.7717 10.4502 13.5375 10.4502 13.2605C10.4502 12.9834 10.3545 12.7492 10.1632 12.5579C9.97186 12.3665 9.73766 12.2709 9.46058 12.2709C9.1835 12.2709 8.94929 12.3665 8.75798 12.5579C8.56666 12.7492 8.471 12.9834 8.471 13.2605C8.471 13.5375 8.56666 13.7717 8.75798 13.9631C8.94929 14.1544 9.1835 14.25 9.46058 14.25ZM8.74808 11.2021H10.2127C10.2127 10.7667 10.2621 10.4237 10.3611 10.173C10.4601 9.92226 10.7404 9.57921 11.2022 9.14379C11.5453 8.80074 11.8158 8.47417 12.0137 8.1641C12.2116 7.85403 12.3106 7.48129 12.3106 7.04587C12.3106 6.30699 12.0401 5.73962 11.4991 5.34379C10.9581 4.94796 10.3182 4.75004 9.57933 4.75004C8.82725 4.75004 8.217 4.94796 7.7486 5.34379C7.2802 5.73962 6.95363 6.21462 6.76891 6.76879L8.07516 7.28337C8.14113 7.04587 8.28957 6.78858 8.52048 6.5115C8.75138 6.23442 9.10433 6.09587 9.57933 6.09587C10.0016 6.09587 10.3182 6.21133 10.5293 6.44223C10.7404 6.67313 10.846 6.92712 10.846 7.20421C10.846 7.4681 10.7668 7.71549 10.6085 7.94639C10.4502 8.1773 10.2522 8.39171 10.0147 8.58962C9.43419 9.10421 9.07794 9.49344 8.946 9.75733C8.81405 10.0212 8.74808 10.5028 8.74808 11.2021ZM9.50016 17.4167C8.40502 17.4167 7.37586 17.2089 6.41266 16.7933C5.44947 16.3776 4.61162 15.8136 3.89912 15.1011C3.18662 14.3886 2.62256 13.5507 2.20693 12.5875C1.79131 11.6243 1.5835 10.5952 1.5835 9.50004C1.5835 8.4049 1.79131 7.37574 2.20693 6.41254C2.62256 5.44935 3.18662 4.6115 3.89912 3.899C4.61162 3.1865 5.44947 2.62244 6.41266 2.20681C7.37586 1.79119 8.40502 1.58337 9.50016 1.58337C10.5953 1.58337 11.6245 1.79119 12.5877 2.20681C13.5509 2.62244 14.3887 3.1865 15.1012 3.899C15.8137 4.6115 16.3778 5.44935 16.7934 6.41254C17.209 7.37574 17.4168 8.4049 17.4168 9.50004C17.4168 10.5952 17.209 11.6243 16.7934 12.5875C16.3778 13.5507 15.8137 14.3886 15.1012 15.1011C14.3887 15.8136 13.5509 16.3776 12.5877 16.7933C11.6245 17.2089 10.5953 17.4167 9.50016 17.4167ZM9.50016 15.8334C11.2682 15.8334 12.7658 15.2198 13.9929 13.9927C15.22 12.7657 15.8335 11.2681 15.8335 9.50004C15.8335 7.73199 15.22 6.23442 13.9929 5.00733C12.7658 3.78025 11.2682 3.16671 9.50016 3.16671C7.73211 3.16671 6.23454 3.78025 5.00745 5.00733C3.78037 6.23442 3.16683 7.73199 3.16683 9.50004C3.16683 11.2681 3.78037 12.7657 5.00745 13.9927C6.23454 15.2198 7.73211 15.8334 9.50016 15.8334Z" fill="#252321"/>
</svg>
