<svg width="20" height="20" viewBox="0 0 20 20" fill="none" xmlns="http://www.w3.org/2000/svg">
<path d="M2 20C1.45 20 0.979167 19.7824 0.5875 19.3472C0.195833 18.912 0 18.3889 0 17.7778V2.22222C0 1.61111 0.195833 1.08796 0.5875 0.652778C0.979167 0.217593 1.45 0 2 0H18C18.55 0 19.0208 0.217593 19.4125 0.652778C19.8042 1.08796 20 1.61111 20 2.22222V17.7778C20 18.3889 19.8042 18.912 19.4125 19.3472C19.0208 19.7824 18.55 20 18 20H2ZM2 17.7778H18V2.22222H2V17.7778ZM3 15.5556H8V13.3333H3V15.5556ZM12.55 13.3333L17.5 7.83333L16.075 6.25L12.55 10.1944L11.125 8.61111L9.725 10.1944L12.55 13.3333ZM3 11.1111H8V8.88889H3V11.1111ZM3 6.66667H8V4.44444H3V6.66667Z" fill="#AAAAAA"/>
</svg>
