<svg xmlns="http://www.w3.org/2000/svg" width="314" height="55" fill="none" viewBox="0 0 314 55">
  <rect width="314" height="55" fill="#FEE500" rx="8"/>
  <path fill="#111" d="M126.539 22.288h1.296c0 4.176-1.408 8.016-6.592 10.592l-.72-1.024c4.576-2.256 6.016-5.488 6.016-9.424v-.144Zm-5.232 0h6.016v1.072h-6.016v-1.072Zm5.024 3.584v1.024l-5.536.544-.208-1.184 5.744-.384Zm3.84-5.104h1.344v14.48h-1.344v-14.48Zm.976 5.872h2.672v1.104h-2.672V26.64Zm9.791-4.352h1.296c0 4.176-1.408 8.016-6.592 10.592l-.72-1.024c4.576-2.256 6.016-5.488 6.016-9.424v-.144Zm-5.232 0h6.016v1.072h-6.016v-1.072Zm5.024 3.584v1.024l-5.536.544-.208-1.184 5.744-.384Zm3.84-5.104h1.344v14.48h-1.344v-14.48Zm.976 5.872h2.672v1.104h-2.672V26.64Zm9.503 2.32h1.328v3.6h-1.328v-3.6Zm.672-7.232c3.056 0 5.248 1.488 5.248 3.792s-2.192 3.792-5.248 3.792-5.264-1.488-5.264-3.792 2.208-3.792 5.264-3.792Zm0 1.056c-2.304 0-3.984 1.088-3.984 2.736 0 1.648 1.68 2.736 3.984 2.736 2.288 0 3.968-1.088 3.968-2.736 0-1.648-1.68-2.736-3.968-2.736Zm-6.528 9.52h13.104v1.104h-13.104v-1.104Zm14.399.064h13.104v1.104h-13.104v-1.104Zm5.856-3.104h1.328v3.568h-1.328v-3.568Zm-4.272-7.408h9.904v4.384h-8.544v2.896h-1.312v-3.968h8.544v-2.24h-8.592v-1.072Zm.048 6.72h10.192v1.088h-10.192v-1.088Zm19.833-6.544h1.088v2.592c0 3.328-1.792 6.416-4.16 7.616l-.816-1.088c2.144-1.024 3.888-3.792 3.888-6.528v-2.592Zm.224 0h1.088v2.592c0 2.64 1.728 5.296 3.872 6.288l-.8 1.056c-2.352-1.152-4.16-4.128-4.16-7.344v-2.592Zm6.464-1.264h1.328v14.496h-1.328V20.768Zm7.454 1.504h1.088v1.168c0 2.656-1.6 4.864-4.016 5.728l-.704-1.04c2.192-.768 3.632-2.624 3.632-4.688v-1.168Zm.24 0h1.088v1.152c0 1.92 1.392 3.696 3.52 4.416l-.688 1.04c-2.384-.832-3.92-2.96-3.92-5.456v-1.152Zm-3.456-.48h7.728v1.088h-7.728v-1.088Zm9.552-1.008h1.328v8.704h-1.328v-8.704Zm.96 3.808h2.512v1.104h-2.512v-1.104Zm-9.024 5.664h9.392v4.992h-1.328V31.36h-8.064v-1.104Zm22.367-9.472h1.328v14.464h-1.328V20.784Zm1.008 5.936h2.688v1.12h-2.688v-1.12Zm-10.88-3.632h8.528v1.088h-8.528v-1.088Zm4.32 2.288c2.048 0 3.52 1.376 3.52 3.328s-1.472 3.328-3.52 3.328c-2.032 0-3.52-1.376-3.52-3.328s1.488-3.328 3.52-3.328Zm0 1.104c-1.312 0-2.256.912-2.256 2.224 0 1.296.944 2.224 2.256 2.224 1.312 0 2.256-.928 2.256-2.224 0-1.312-.944-2.224-2.256-2.224Zm-.688-5.52h1.328v2.624h-1.328V20.96Zm21.375-.176h1.328v14.464h-1.328V20.784Zm-4.24 1.552h1.312c0 4.192-1.888 7.856-6.72 10.224l-.704-1.072c4.176-2.016 6.112-5.088 6.112-8.928v-.224Zm-5.456 0h6.032v1.088h-6.032v-1.088Z"/>
  <path fill="#000" fill-opacity=".902" fill-rule="evenodd" d="M56.779 16c-7.08 0-12.819 4.447-12.819 9.932 0 3.41 2.22 6.418 5.6 8.207l-1.422 5.21c-.127.461.4.828.802.56l6.235-4.126c.525.05 1.06.08 1.604.08 7.08 0 12.819-4.447 12.819-9.931 0-5.485-5.74-9.932-12.819-9.932Z" clip-rule="evenodd"/>
</svg>
