<svg xmlns="http://www.w3.org/2000/svg" width="314" height="55" fill="none" viewBox="0 0 314 55">
  <rect width="314" height="55" fill="#FEE500" rx="8"/>
  <path fill="#111" d="M140.938 22.288h1.296c0 4.176-1.408 8.016-6.592 10.592l-.72-1.024c4.576-2.256 6.016-5.488 6.016-9.424v-.144Zm-5.232 0h6.016v1.072h-6.016v-1.072Zm5.024 3.584v1.024l-5.536.544-.208-1.184 5.744-.384Zm3.84-5.104h1.344v14.48h-1.344v-14.48Zm.976 5.872h2.672v1.104h-2.672V26.64Zm9.791-4.352h1.296c0 4.176-1.408 8.016-6.592 10.592l-.72-1.024c4.576-2.256 6.016-5.488 6.016-9.424v-.144Zm-5.232 0h6.016v1.072h-6.016v-1.072Zm5.024 3.584v1.024l-5.536.544-.208-1.184 5.744-.384Zm3.84-5.104h1.344v14.48h-1.344v-14.48Zm.976 5.872h2.672v1.104h-2.672V26.64Zm9.503 2.32h1.328v3.6h-1.328v-3.6Zm.672-7.232c3.056 0 5.248 1.488 5.248 3.792s-2.192 3.792-5.248 3.792-5.264-1.488-5.264-3.792 2.208-3.792 5.264-3.792Zm0 1.056c-2.304 0-3.984 1.088-3.984 2.736 0 1.648 1.68 2.736 3.984 2.736 2.288 0 3.968-1.088 3.968-2.736 0-1.648-1.68-2.736-3.968-2.736Zm-6.528 9.52h13.104v1.104h-13.104v-1.104Zm17.657.064h13.104v1.104h-13.104v-1.104Zm5.856-3.104h1.328v3.568h-1.328v-3.568Zm-4.272-7.408h9.904v4.384h-8.544v2.896h-1.312v-3.968h8.544v-2.24h-8.592v-1.072Zm.048 6.72h10.192v1.088h-10.192v-1.088Zm14.174-6.256h9.312v1.072h-9.312V22.32Zm-1.408 9.712h13.072v1.104h-13.072v-1.104Zm10.016-9.712h1.296v1.44c0 1.856 0 3.92-.544 7.04l-1.328-.128c.576-2.96.576-5.12.576-6.912v-1.44Zm14.895-1.52h1.344v10.56h-1.344V20.8Zm-7.952 13.04h9.728v1.088h-9.728V33.84Zm0-3.568h1.312v3.936h-1.312v-3.936Zm1.536-8.48c2.16 0 3.76 1.472 3.76 3.568 0 2.08-1.6 3.568-3.76 3.568-2.16 0-3.776-1.488-3.776-3.568 0-2.096 1.616-3.568 3.776-3.568Zm0 1.152c-1.408 0-2.48.992-2.48 2.416 0 1.408 1.072 2.4 2.48 2.4s2.48-.992 2.48-2.4c0-1.424-1.072-2.416-2.48-2.416Z"/>
  <path fill="#000" fill-opacity=".902" fill-rule="evenodd" d="M56.779 16c-7.08 0-12.819 4.447-12.819 9.932 0 3.41 2.22 6.418 5.6 8.207l-1.422 5.21c-.127.461.4.828.802.56l6.235-4.126c.525.05 1.06.08 1.604.08 7.08 0 12.819-4.447 12.819-9.931 0-5.485-5.74-9.932-12.819-9.932Z" clip-rule="evenodd"/>
</svg>
